<svg xmlns="http://www.w3.org/2000/svg" version="1.1" xmlns:xlink="http://www.w3.org/1999/xlink" viewBox="0 0 200 200"><rect width="200" height="200" fill="url('#gradient')"></rect><defs><linearGradient id="gradient" gradientTransform="rotate(45 0.5 0.5)"><stop offset="0%" stop-color="#4f46e5"></stop><stop offset="100%" stop-color="#4f46e5"></stop></linearGradient></defs><g><g fill="#ffffff" transform="matrix(5.7229540918163675,0,0,5.7229540918163675,23.855428615492016,140.69445978381677)" stroke="#dde5dc" stroke-width="0"><path d="M5.75 0L1.07 0L1.07-14.22L5.65-14.22Q7.54-14.22 9.04-13.36Q10.55-12.51 11.39-10.95Q12.24-9.39 12.25-7.46L12.25-7.46L12.25-6.81Q12.25-4.85 11.42-3.31Q10.60-1.76 9.10-0.88Q7.60-0.01 5.75 0L5.75 0ZM5.65-11.57L4.50-11.57L4.50-2.64L5.69-2.64Q7.17-2.64 7.96-3.69Q8.75-4.74 8.75-6.81L8.75-6.81L8.75-7.42Q8.75-9.48 7.96-10.53Q7.17-11.57 5.65-11.57L5.65-11.57ZM22.10-4.81L25.51-4.81Q25.44-3.33 24.71-2.19Q23.97-1.05 22.65-0.43Q21.33 0.20 19.63 0.20L19.63 0.20Q16.83 0.20 15.21-1.63Q13.60-3.46 13.60-6.79L13.60-6.79L13.60-7.49Q13.60-9.58 14.33-11.15Q15.06-12.71 16.43-13.57Q17.79-14.42 19.59-14.42L19.59-14.42Q22.18-14.42 23.75-13.06Q25.32-11.70 25.54-9.31L25.54-9.31L22.12-9.31Q22.08-10.61 21.46-11.17Q20.85-11.74 19.59-11.74L19.59-11.74Q18.31-11.74 17.71-10.78Q17.12-9.82 17.09-7.72L17.09-7.72L17.09-6.72Q17.09-4.44 17.66-3.47Q18.23-2.49 19.63-2.49L19.63-2.49Q20.81-2.49 21.44-3.05Q22.06-3.60 22.10-4.81L22.10-4.81Z"></path></g></g></svg>